<?xml version="1.0" standalone="no"?>
<!DOCTYPE svg PUBLIC "-//W3C//DTD SVG 20010904//EN"
 "https://www.w3.org/TR/2001/REC-SVG-20010904/DTD/svg10.dtd">
<svg version="1.0" xmlns="https://www.w3.org/2000/svg"
 width="2195.000000pt" height="1656.000000pt" viewBox="0 0 2195.000000 1656.000000"
 preserveAspectRatio="xMidYMid meet">

<g transform="translate(0.000000,1656.000000) scale(0.100000,-0.100000)"
fill="#000000" stroke="none">
<path d="M9862 14002 c-41 -85 -229 -595 -235 -636 -1 -12 -7 -28 -12 -36 -11
-17 -94 -240 -89 -240 15 0 74 145 215 535 92 253 166 461 165 462 -1 1 -21
-37 -44 -85z"/>
<path d="M12150 14008 c0 -9 139 -413 224 -652 84 -235 119 -316 133 -303 4 4
-54 146 -67 162 -4 6 -10 25 -14 43 -3 19 -12 48 -20 65 -7 18 -28 75 -46 127
-17 52 -36 103 -41 112 -5 10 -9 24 -9 32 0 8 -9 31 -20 53 -31 63 -92 252
-84 264 4 8 3 9 -4 5 -11 -6 -17 12 -13 37 0 4 -3 7 -9 7 -5 0 -10 9 -10 19 0
11 -4 23 -10 26 -5 3 -10 5 -10 3z"/>
</g>
</svg>
